<?xml version="1.0" encoding="UTF-8" standalone="no"?>
<svg width="123px" height="86px" viewBox="0 0 123 86" version="1.1" xmlns="http://www.w3.org/2000/svg" xmlns:xlink="http://www.w3.org/1999/xlink">
    <g id="Page-1" stroke="none" stroke-width="1" fill="none" fill-rule="evenodd">
        <g id="Artboard-1" transform="translate(-39.000000, -32.000000)" fill="#FFFFFF">
            <path d="M44.984,33.296 L39.8,33.296 L39.8,59 L44.984,59 L44.984,51.368 L46.892,48.452 L52.184,59 L58.016,59 L50.24,44.312 L57.224,33.296 L51.608,33.296 L45.056,43.592 L44.984,43.592 L44.984,33.296 Z M59.384,59 L64.568,59 L64.568,33.296 L59.384,33.296 L59.384,59 Z M79.4,41.972 L84.584,41.972 C84.584,41.0359953 84.5180007,40.0340053 84.386,38.966 C84.2539993,37.8979947 83.9240026,36.9020046 83.396,35.978 C82.8679974,35.0539954 82.0700053,34.292003 81.002,33.692 C79.9339947,33.091997 78.4760092,32.792 76.628,32.792 C74.6839903,32.792 73.1360058,33.1219967 71.984,33.782 C70.8319942,34.4420033 69.9500031,35.3599941 69.338,36.536 C68.7259969,37.7120059 68.3300009,39.1219918 68.15,40.766 C67.9699991,42.4100082 67.88,44.2039903 67.88,46.148 C67.88,48.1160098 67.9699991,49.9159918 68.15,51.548 C68.3300009,53.1800082 68.7259969,54.5839941 69.338,55.76 C69.9500031,56.9360059 70.8319942,57.8359969 71.984,58.46 C73.1360058,59.0840031 74.6839903,59.396 76.628,59.396 C78.3320085,59.396 79.7179947,59.1320026 80.786,58.604 C81.8540053,58.0759974 82.6819971,57.3440047 83.27,56.408 C83.8580029,55.4719953 84.2599989,54.3800062 84.476,53.132 C84.6920011,51.8839938 84.8,50.564007 84.8,49.172 L79.616,49.172 C79.616,50.564007 79.5320008,51.6859957 79.364,52.538 C79.1959992,53.3900043 78.9680014,54.0499977 78.68,54.518 C78.3919986,54.9860023 78.050002,55.2979992 77.654,55.454 C77.257998,55.6100008 76.8320023,55.688 76.376,55.688 C75.8239972,55.688 75.3380021,55.5740011 74.918,55.346 C74.4979979,55.1179989 74.1500014,54.6740033 73.874,54.014 C73.5979986,53.3539967 73.3940007,52.424006 73.262,51.224 C73.1299993,50.023994 73.064,48.4520097 73.064,46.508 C73.064,44.6839909 73.1119995,43.1420063 73.208,41.882 C73.3040005,40.6219937 73.4719988,39.6020039 73.712,38.822 C73.9520012,38.0419961 74.2819979,37.4780017 74.702,37.13 C75.1220021,36.7819983 75.6559968,36.608 76.304,36.608 C77.4800059,36.608 78.2899978,37.0339957 78.734,37.886 C79.1780022,38.7380043 79.4,40.0999906 79.4,41.972 L79.4,41.972 Z M92.936,33.296 L87.752,33.296 L87.752,59 L92.936,59 L92.936,51.368 L94.844,48.452 L100.136,59 L105.968,59 L98.192,44.312 L105.176,33.296 L99.56,33.296 L93.008,43.592 L92.936,43.592 L92.936,33.296 Z M117.812,49.316 L115.328,37.76 L115.256,37.76 L112.772,49.316 L117.812,49.316 Z M118.496,33.296 L125.3,59 L119.9,59 L118.712,53.564 L111.872,53.564 L110.684,59 L105.284,59 L112.088,33.296 L118.496,33.296 Z M131.276,50.972 L126.092,50.972 L126.092,52.016 C126.092,54.3920119 126.721994,56.2159936 127.982,57.488 C129.242006,58.7600064 131.335985,59.396 134.264,59.396 C137.072014,59.396 139.261992,58.7780062 140.834,57.542 C142.406008,56.3059938 143.192,54.3320136 143.192,51.62 C143.192,50.827996 143.120001,50.1080032 142.976,49.46 C142.831999,48.8119968 142.574002,48.2180027 142.202,47.678 C141.829998,47.1379973 141.332003,46.6340023 140.708,46.166 C140.083997,45.6979977 139.280005,45.2480022 138.296,44.816 L134.3,43.088 C133.195994,42.6319977 132.476002,42.1340027 132.14,41.594 C131.803998,41.0539973 131.636,40.388004 131.636,39.596 C131.636,39.2119981 131.678,38.8400018 131.762,38.48 C131.846,38.1199982 132.001999,37.8020014 132.23,37.526 C132.458001,37.2499986 132.763998,37.0280008 133.148,36.86 C133.532002,36.6919992 134.011997,36.608 134.588,36.608 C135.596005,36.608 136.315998,36.9379967 136.748,37.598 C137.180002,38.2580033 137.396,39.1999939 137.396,40.424 L142.364,40.424 L142.364,39.704 C142.364,38.4799939 142.166002,37.4300044 141.77,36.554 C141.373998,35.6779956 140.822004,34.9580028 140.114,34.394 C139.405996,33.8299972 138.566005,33.4220013 137.594,33.17 C136.621995,32.9179987 135.560006,32.792 134.408,32.792 C131.935988,32.792 129.992007,33.4159938 128.576,34.664 C127.159993,35.9120062 126.452,37.8079873 126.452,40.352 C126.452,41.4080053 126.583999,42.337996 126.848,43.142 C127.112001,43.946004 127.525997,44.6539969 128.09,45.266 C128.654003,45.8780031 129.355996,46.4119977 130.196,46.868 C131.036004,47.3240023 132.031994,47.7439981 133.184,48.128 C134.048004,48.4160014 134.773997,48.6979986 135.362,48.974 C135.950003,49.2500014 136.423998,49.5559983 136.784,49.892 C137.144002,50.2280017 137.401999,50.6059979 137.558,51.026 C137.714001,51.4460021 137.792,51.9439971 137.792,52.52 C137.792,53.6000054 137.474003,54.3979974 136.838,54.914 C136.201997,55.4300026 135.488004,55.688 134.696,55.688 C134.023997,55.688 133.466002,55.592001 133.022,55.4 C132.577998,55.207999 132.224001,54.9440017 131.96,54.608 C131.695999,54.2719983 131.516,53.8580025 131.42,53.366 C131.324,52.8739975 131.276,52.328003 131.276,51.728 L131.276,50.972 Z M149.96,50.972 L144.776,50.972 L144.776,52.016 C144.776,54.3920119 145.405994,56.2159936 146.666,57.488 C147.926006,58.7600064 150.019985,59.396 152.948,59.396 C155.756014,59.396 157.945992,58.7780062 159.518,57.542 C161.090008,56.3059938 161.876,54.3320136 161.876,51.62 C161.876,50.827996 161.804001,50.1080032 161.66,49.46 C161.515999,48.8119968 161.258002,48.2180027 160.886,47.678 C160.513998,47.1379973 160.016003,46.6340023 159.392,46.166 C158.767997,45.6979977 157.964005,45.2480022 156.98,44.816 L152.984,43.088 C151.879994,42.6319977 151.160002,42.1340027 150.824,41.594 C150.487998,41.0539973 150.32,40.388004 150.32,39.596 C150.32,39.2119981 150.362,38.8400018 150.446,38.48 C150.53,38.1199982 150.685999,37.8020014 150.914,37.526 C151.142001,37.2499986 151.447998,37.0280008 151.832,36.86 C152.216002,36.6919992 152.695997,36.608 153.272,36.608 C154.280005,36.608 154.999998,36.9379967 155.432,37.598 C155.864002,38.2580033 156.08,39.1999939 156.08,40.424 L161.048,40.424 L161.048,39.704 C161.048,38.4799939 160.850002,37.4300044 160.454,36.554 C160.057998,35.6779956 159.506004,34.9580028 158.798,34.394 C158.089996,33.8299972 157.250005,33.4220013 156.278,33.17 C155.305995,32.9179987 154.244006,32.792 153.092,32.792 C150.619988,32.792 148.676007,33.4159938 147.26,34.664 C145.843993,35.9120062 145.136,37.8079873 145.136,40.352 C145.136,41.4080053 145.267999,42.337996 145.532,43.142 C145.796001,43.946004 146.209997,44.6539969 146.774,45.266 C147.338003,45.8780031 148.039996,46.4119977 148.88,46.868 C149.720004,47.3240023 150.715994,47.7439981 151.868,48.128 C152.732004,48.4160014 153.457997,48.6979986 154.046,48.974 C154.634003,49.2500014 155.107998,49.5559983 155.468,49.892 C155.828002,50.2280017 156.085999,50.6059979 156.242,51.026 C156.398001,51.4460021 156.476,51.9439971 156.476,52.52 C156.476,53.6000054 156.158003,54.3979974 155.522,54.914 C154.885997,55.4300026 154.172004,55.688 153.38,55.688 C152.707997,55.688 152.150002,55.592001 151.706,55.4 C151.261998,55.207999 150.908001,54.9440017 150.644,54.608 C150.379999,54.2719983 150.2,53.8580025 150.104,53.366 C150.008,52.8739975 149.96,52.328003 149.96,51.728 L149.96,50.972 Z M39.8,62.296 L39.8,88 L44.984,88 L44.984,76.84 L53.624,76.84 L53.624,72.592 L44.984,72.592 L44.984,66.544 L54.164,66.544 L54.164,62.296 L39.8,62.296 Z M56.72,88 L61.904,88 L61.904,62.296 L56.72,62.296 L56.72,88 Z M80.804,62.296 L64.388,62.296 L64.388,66.544 L70.004,66.544 L70.004,88 L75.188,88 L75.188,66.544 L80.804,66.544 L80.804,62.296 Z M89.012,62.296 L83.036,62.296 L83.036,88 L87.788,88 L87.788,70 L87.86,70 L94.196,88 L100.1,88 L100.1,62.296 L95.348,62.296 L95.348,79.9 L95.276,79.9 L89.012,62.296 Z M118.064,62.296 L103.7,62.296 L103.7,88 L118.424,88 L118.424,83.752 L108.884,83.752 L108.884,76.84 L117.524,76.84 L117.524,72.592 L108.884,72.592 L108.884,66.544 L118.064,66.544 L118.064,62.296 Z M125.192,79.972 L120.008,79.972 L120.008,81.016 C120.008,83.3920119 120.637994,85.2159936 121.898,86.488 C123.158006,87.7600064 125.251985,88.396 128.18,88.396 C130.988014,88.396 133.177992,87.7780062 134.75,86.542 C136.322008,85.3059938 137.108,83.3320136 137.108,80.62 C137.108,79.827996 137.036001,79.1080032 136.892,78.46 C136.747999,77.8119968 136.490002,77.2180027 136.118,76.678 C135.745998,76.1379973 135.248003,75.6340023 134.624,75.166 C133.999997,74.6979977 133.196005,74.2480022 132.212,73.816 L128.216,72.088 C127.111994,71.6319977 126.392002,71.1340027 126.056,70.594 C125.719998,70.0539973 125.552,69.388004 125.552,68.596 C125.552,68.2119981 125.594,67.8400018 125.678,67.48 C125.762,67.1199982 125.917999,66.8020014 126.146,66.526 C126.374001,66.2499986 126.679998,66.0280008 127.064,65.86 C127.448002,65.6919992 127.927997,65.608 128.504,65.608 C129.512005,65.608 130.231998,65.9379967 130.664,66.598 C131.096002,67.2580033 131.312,68.1999939 131.312,69.424 L136.28,69.424 L136.28,68.704 C136.28,67.4799939 136.082002,66.4300044 135.686,65.554 C135.289998,64.6779956 134.738004,63.9580028 134.03,63.394 C133.321996,62.8299972 132.482005,62.4220013 131.51,62.17 C130.537995,61.9179987 129.476006,61.792 128.324,61.792 C125.851988,61.792 123.908007,62.4159938 122.492,63.664 C121.075993,64.9120062 120.368,66.8079873 120.368,69.352 C120.368,70.4080053 120.499999,71.337996 120.764,72.142 C121.028001,72.946004 121.441997,73.6539969 122.006,74.266 C122.570003,74.8780031 123.271996,75.4119977 124.112,75.868 C124.952004,76.3240023 125.947994,76.7439981 127.1,77.128 C127.964004,77.4160014 128.689997,77.6979986 129.278,77.974 C129.866003,78.2500014 130.339998,78.5559983 130.7,78.892 C131.060002,79.2280017 131.317999,79.6059979 131.474,80.026 C131.630001,80.4460021 131.708,80.9439971 131.708,81.52 C131.708,82.6000054 131.390003,83.3979974 130.754,83.914 C130.117997,84.4300026 129.404004,84.688 128.612,84.688 C127.939997,84.688 127.382002,84.592001 126.938,84.4 C126.493998,84.207999 126.140001,83.9440017 125.876,83.608 C125.611999,83.2719983 125.432,82.8580025 125.336,82.366 C125.24,81.8739975 125.192,81.328003 125.192,80.728 L125.192,79.972 Z M143.876,79.972 L138.692,79.972 L138.692,81.016 C138.692,83.3920119 139.321994,85.2159936 140.582,86.488 C141.842006,87.7600064 143.935985,88.396 146.864,88.396 C149.672014,88.396 151.861992,87.7780062 153.434,86.542 C155.006008,85.3059938 155.792,83.3320136 155.792,80.62 C155.792,79.827996 155.720001,79.1080032 155.576,78.46 C155.431999,77.8119968 155.174002,77.2180027 154.802,76.678 C154.429998,76.1379973 153.932003,75.6340023 153.308,75.166 C152.683997,74.6979977 151.880005,74.2480022 150.896,73.816 L146.9,72.088 C145.795994,71.6319977 145.076002,71.1340027 144.74,70.594 C144.403998,70.0539973 144.236,69.388004 144.236,68.596 C144.236,68.2119981 144.278,67.8400018 144.362,67.48 C144.446,67.1199982 144.601999,66.8020014 144.83,66.526 C145.058001,66.2499986 145.363998,66.0280008 145.748,65.86 C146.132002,65.6919992 146.611997,65.608 147.188,65.608 C148.196005,65.608 148.915998,65.9379967 149.348,66.598 C149.780002,67.2580033 149.996,68.1999939 149.996,69.424 L154.964,69.424 L154.964,68.704 C154.964,67.4799939 154.766002,66.4300044 154.37,65.554 C153.973998,64.6779956 153.422004,63.9580028 152.714,63.394 C152.005996,62.8299972 151.166005,62.4220013 150.194,62.17 C149.221995,61.9179987 148.160006,61.792 147.008,61.792 C144.535988,61.792 142.592007,62.4159938 141.176,63.664 C139.759993,64.9120062 139.052,66.8079873 139.052,69.352 C139.052,70.4080053 139.183999,71.337996 139.448,72.142 C139.712001,72.946004 140.125997,73.6539969 140.69,74.266 C141.254003,74.8780031 141.955996,75.4119977 142.796,75.868 C143.636004,76.3240023 144.631994,76.7439981 145.784,77.128 C146.648004,77.4160014 147.373997,77.6979986 147.962,77.974 C148.550003,78.2500014 149.023998,78.5559983 149.384,78.892 C149.744002,79.2280017 150.001999,79.6059979 150.158,80.026 C150.314001,80.4460021 150.392,80.9439971 150.392,81.52 C150.392,82.6000054 150.074003,83.3979974 149.438,83.914 C148.801997,84.4300026 148.088004,84.688 147.296,84.688 C146.623997,84.688 146.066002,84.592001 145.622,84.4 C145.177998,84.207999 144.824001,83.9440017 144.56,83.608 C144.295999,83.2719983 144.116,82.8580025 144.02,82.366 C143.924,81.8739975 143.876,81.328003 143.876,80.728 L143.876,79.972 Z M51.212,98.928 L56.18,98.928 C56.18,96.3119869 55.5560062,94.302007 54.308,92.898 C53.0599938,91.493993 51.0200142,90.792 48.188,90.792 C46.5319917,90.792 45.1520055,91.0679972 44.048,91.62 C42.9439945,92.1720028 42.0560034,92.9939945 41.384,94.086 C40.7119966,95.1780055 40.2380014,96.5399918 39.962,98.172 C39.6859986,99.8040082 39.548,101.699989 39.548,103.86 C39.548,106.092011 39.643999,108.053992 39.836,109.746 C40.028001,111.438008 40.4059972,112.859994 40.97,114.012 C41.5340028,115.164006 42.313995,116.015997 43.31,116.568 C44.306005,117.120003 45.5959921,117.396 47.18,117.396 C48.4040061,117.396 49.4539956,117.186002 50.33,116.766 C51.2060044,116.345998 51.9559969,115.632005 52.58,114.624 L52.652,114.624 L52.652,117 L56.468,117 L56.468,103.14 L48.08,103.14 L48.08,106.956 L51.5,106.956 L51.5,109.584 C51.5,110.280003 51.3920011,110.885997 51.176,111.402 C50.9599989,111.918003 50.6900016,112.343998 50.366,112.68 C50.0419984,113.016002 49.6940019,113.267999 49.322,113.436 C48.9499981,113.604001 48.6080016,113.688 48.296,113.688 C47.5519963,113.688 46.9460023,113.454002 46.478,112.986 C46.0099977,112.517998 45.6500013,111.846004 45.398,110.97 C45.1459987,110.093996 44.9720005,109.032006 44.876,107.784 C44.7799995,106.535994 44.732,105.144008 44.732,103.608 C44.732,100.391984 45.0079972,98.088007 45.56,96.696 C46.1120028,95.303993 47.0119938,94.608 48.26,94.608 C48.7880026,94.608 49.2379981,94.7459986 49.61,95.022 C49.9820019,95.2980014 50.2879988,95.6459979 50.528,96.066 C50.7680012,96.4860021 50.9419995,96.9479975 51.05,97.452 C51.1580005,97.9560025 51.212,98.4479976 51.212,98.928 L51.212,98.928 Z M64.676,91.296 L59.492,91.296 L59.492,109.224 C59.492,110.952009 59.7199977,112.355995 60.176,113.436 C60.6320023,114.516005 61.2439962,115.349997 62.012,115.938 C62.7800038,116.526003 63.6559951,116.915999 64.64,117.108 C65.6240049,117.300001 66.6439947,117.396 67.7,117.396 C68.7560053,117.396 69.7759951,117.288001 70.76,117.072 C71.7440049,116.855999 72.6199962,116.436003 73.388,115.812 C74.1560038,115.187997 74.7679977,114.342005 75.224,113.274 C75.6800023,112.205995 75.908,110.856008 75.908,109.224 L75.908,91.296 L70.724,91.296 L70.724,109.224 C70.724,109.872003 70.6820004,110.465997 70.598,111.006 C70.5139996,111.546003 70.3580011,112.013998 70.13,112.41 C69.9019989,112.806002 69.5960019,113.117999 69.212,113.346 C68.8279981,113.574001 68.3240031,113.688 67.7,113.688 C67.099997,113.688 66.602002,113.574001 66.206,113.346 C65.809998,113.117999 65.4980011,112.806002 65.27,112.41 C65.0419989,112.013998 64.8860004,111.546003 64.802,111.006 C64.7179996,110.465997 64.676,109.872003 64.676,109.224 L64.676,91.296 Z M79.436,117 L84.62,117 L84.62,91.296 L79.436,91.296 L79.436,117 Z M93.908,113.184 L93.908,95.112 L96.104,95.112 C97.0880049,95.112 97.8739971,95.2979981 98.462,95.67 C99.0500029,96.0420019 99.4939985,96.5939963 99.794,97.326 C100.094001,98.0580037 100.292,98.9759945 100.388,100.08 C100.484,101.184006 100.532,102.467993 100.532,103.932 C100.532,105.684009 100.478001,107.147994 100.37,108.324 C100.261999,109.500006 100.046002,110.447996 99.722,111.168 C99.3979984,111.888004 98.9600028,112.403998 98.408,112.716 C97.8559972,113.028002 97.1240046,113.184 96.212,113.184 L93.908,113.184 Z M88.724,91.296 L88.724,117 L96.896,117 C98.6240086,117 100.051994,116.736003 101.18,116.208 C102.308006,115.679997 103.207997,114.876005 103.88,113.796 C104.552003,112.715995 105.025999,111.342008 105.302,109.674 C105.578001,108.005992 105.716,106.044011 105.716,103.788 C105.716,101.891991 105.608001,100.176008 105.392,98.64 C105.175999,97.1039923 104.762003,95.7900055 104.15,94.698 C103.537997,93.6059945 102.680006,92.7660029 101.576,92.178 C100.471994,91.5899971 99.020009,91.296 97.22,91.296 L88.724,91.296 Z M123.5,91.296 L109.136,91.296 L109.136,117 L123.86,117 L123.86,112.752 L114.32,112.752 L114.32,105.84 L122.96,105.84 L122.96,101.592 L114.32,101.592 L114.32,95.544 L123.5,95.544 L123.5,91.296 Z" id="KICKASS-Copy"></path>
        </g>
    </g>
</svg>
